<?xml version="1.0" encoding="UTF-8"?>
<svg version="1.1" xmlns="http://www.w3.org/2000/svg" width="1610" height="1390">
<path d="M0 0 C108.9 0 217.8 0 330 0 C330 145.2 330 290.4 330 440 C366.3 440 402.6 440 440 440 C440 367.4 440 294.8 440 220 C476.3 220 512.6 220 550 220 C550 328.9 550 437.8 550 550 C477.4 550 404.8 550 330 550 C330 622.6 330 695.2 330 770 C221.1 770 112.2 770 0 770 C0 733.7 0 697.4 0 660 C72.6 660 145.2 660 220 660 C220 623.7 220 587.4 220 550 C147.4 550 74.8 550 0 550 C0 368.5 0 187 0 0 Z M110 110 C110 218.9 110 327.8 110 440 C146.3 440 182.6 440 220 440 C220 331.1 220 222.2 220 110 C183.7 110 147.4 110 110 110 Z " fill="#0D1626" transform="translate(200,200)"/>
<path d="M0 0 C36.3 0 72.6 0 110 0 C110 290.4 110 580.8 110 880 C146.3 880 182.6 880 220 880 C220 807.4 220 734.8 220 660 C328.9 660 437.8 660 550 660 C550 768.9 550 877.8 550 990 C368.5 990 187 990 0 990 C0 663.3 0 336.6 0 0 Z M330 770 C330 806.3 330 842.6 330 880 C366.3 880 402.6 880 440 880 C440 843.7 440 807.4 440 770 C403.7 770 367.4 770 330 770 Z " fill="#0D1626" transform="translate(860,200)"/>
<path d="M0 0 C108.9 0 217.8 0 330 0 C330 181.5 330 363 330 550 C221.1 550 112.2 550 0 550 C0 368.5 0 187 0 0 Z M110 110 C110 218.9 110 327.8 110 440 C146.3 440 182.6 440 220 440 C220 331.1 220 222.2 220 110 C183.7 110 147.4 110 110 110 Z " fill="#0D1626" transform="translate(1080,200)"/>
<path d="M0 0 C36.3 0 72.6 0 110 0 C110 108.9 110 217.8 110 330 C-71.5 330 -253 330 -440 330 C-440 293.7 -440 257.4 -440 220 C-294.8 220 -149.6 220 0 220 C0 147.4 0 74.8 0 0 Z " fill="#0D1626" transform="translate(640,860)"/>
<path d="M0 0 C36.3 0 72.6 0 110 0 C110 36.3 110 72.6 110 110 C73.7 110 37.4 110 0 110 C0 73.7 0 37.4 0 0 Z " fill="#0D1626" transform="translate(640,200)"/>
</svg>
